<mxfile host="app.diagrams.net" agent="Mozilla/5.0 (Macintosh; Intel Mac OS X 10_15_7) AppleWebKit/537.36 (KHTML, like Gecko) Chrome/138.0.0.0 Safari/537.36" version="28.0.4">
  <diagram name="第 1 页" id="gRs7rv8ex7s_6jVjC4bQ">
    <mxGraphModel dx="2864" dy="2298" grid="1" gridSize="10" guides="1" tooltips="1" connect="1" arrows="1" fold="1" page="1" pageScale="1" pageWidth="827" pageHeight="1169" math="0" shadow="0">
      <root>
        <mxCell id="0" />
        <mxCell id="1" parent="0" />
        <mxCell id="F-AHuK_9SeL1mnWa1wMK-3" style="edgeStyle=orthogonalEdgeStyle;rounded=0;orthogonalLoop=1;jettySize=auto;html=1;exitX=0.5;exitY=1;exitDx=0;exitDy=0;entryX=0.5;entryY=0;entryDx=0;entryDy=0;" parent="1" source="F-AHuK_9SeL1mnWa1wMK-1" target="F-AHuK_9SeL1mnWa1wMK-2" edge="1">
          <mxGeometry relative="1" as="geometry" />
        </mxCell>
        <mxCell id="F-AHuK_9SeL1mnWa1wMK-1" value="客户端发起检查更新请求" style="rounded=0;whiteSpace=wrap;html=1;" parent="1" vertex="1">
          <mxGeometry x="342" y="20" width="140" height="40" as="geometry" />
        </mxCell>
        <mxCell id="F-AHuK_9SeL1mnWa1wMK-5" style="edgeStyle=orthogonalEdgeStyle;rounded=0;orthogonalLoop=1;jettySize=auto;html=1;exitX=0;exitY=0.5;exitDx=0;exitDy=0;entryX=1;entryY=0.5;entryDx=0;entryDy=0;" parent="1" target="F-AHuK_9SeL1mnWa1wMK-4" edge="1" source="F-AHuK_9SeL1mnWa1wMK-2">
          <mxGeometry relative="1" as="geometry">
            <mxPoint x="371" y="140" as="sourcePoint" />
            <mxPoint x="311" y="140" as="targetPoint" />
          </mxGeometry>
        </mxCell>
        <mxCell id="F-AHuK_9SeL1mnWa1wMK-6" value="False" style="edgeLabel;html=1;align=center;verticalAlign=middle;resizable=0;points=[];" parent="F-AHuK_9SeL1mnWa1wMK-5" vertex="1" connectable="0">
          <mxGeometry x="-0.1" relative="1" as="geometry">
            <mxPoint as="offset" />
          </mxGeometry>
        </mxCell>
        <mxCell id="F-AHuK_9SeL1mnWa1wMK-8" value="True" style="edgeStyle=orthogonalEdgeStyle;rounded=0;orthogonalLoop=1;jettySize=auto;html=1;exitX=0.5;exitY=1;exitDx=0;exitDy=0;entryX=0.5;entryY=0;entryDx=0;entryDy=0;" parent="1" source="F-AHuK_9SeL1mnWa1wMK-2" target="F-AHuK_9SeL1mnWa1wMK-12" edge="1">
          <mxGeometry relative="1" as="geometry">
            <mxPoint x="409" y="290" as="targetPoint" />
          </mxGeometry>
        </mxCell>
        <mxCell id="F-AHuK_9SeL1mnWa1wMK-2" value="签名验证&lt;div&gt;（包名、sha256）&lt;div&gt;&lt;div&gt;查询大于当前版本的APK&lt;/div&gt;&lt;/div&gt;&lt;/div&gt;" style="rhombus;whiteSpace=wrap;html=1;" parent="1" vertex="1">
          <mxGeometry x="333" y="90" width="162" height="100" as="geometry" />
        </mxCell>
        <mxCell id="F-AHuK_9SeL1mnWa1wMK-73" style="edgeStyle=orthogonalEdgeStyle;rounded=0;orthogonalLoop=1;jettySize=auto;html=1;exitX=0.5;exitY=1;exitDx=0;exitDy=0;entryX=0;entryY=0.5;entryDx=0;entryDy=0;" parent="1" source="F-AHuK_9SeL1mnWa1wMK-4" target="F-AHuK_9SeL1mnWa1wMK-66" edge="1">
          <mxGeometry relative="1" as="geometry" />
        </mxCell>
        <mxCell id="F-AHuK_9SeL1mnWa1wMK-4" value="签名失败" style="rounded=0;whiteSpace=wrap;html=1;" parent="1" vertex="1">
          <mxGeometry x="-160" y="110" width="120" height="60" as="geometry" />
        </mxCell>
        <mxCell id="F-AHuK_9SeL1mnWa1wMK-15" style="edgeStyle=orthogonalEdgeStyle;rounded=0;orthogonalLoop=1;jettySize=auto;html=1;exitX=0.5;exitY=1;exitDx=0;exitDy=0;entryX=0.5;entryY=0;entryDx=0;entryDy=0;" parent="1" source="F-AHuK_9SeL1mnWa1wMK-12" edge="1">
          <mxGeometry relative="1" as="geometry">
            <mxPoint x="412" y="495" as="targetPoint" />
          </mxGeometry>
        </mxCell>
        <mxCell id="F-AHuK_9SeL1mnWa1wMK-76" style="edgeStyle=orthogonalEdgeStyle;rounded=0;orthogonalLoop=1;jettySize=auto;html=1;exitX=1;exitY=0.5;exitDx=0;exitDy=0;entryX=0;entryY=0.5;entryDx=0;entryDy=0;" parent="1" source="F-AHuK_9SeL1mnWa1wMK-12" target="F-AHuK_9SeL1mnWa1wMK-72" edge="1">
          <mxGeometry relative="1" as="geometry" />
        </mxCell>
        <mxCell id="F-AHuK_9SeL1mnWa1wMK-12" value="按照版本从高到底排列&lt;div&gt;遍历查找匹配的策略&lt;/div&gt;" style="ellipse;whiteSpace=wrap;html=1;aspect=fixed;" parent="1" vertex="1">
          <mxGeometry x="349" y="230" width="130" height="130" as="geometry" />
        </mxCell>
        <mxCell id="F-AHuK_9SeL1mnWa1wMK-38" style="edgeStyle=orthogonalEdgeStyle;rounded=0;orthogonalLoop=1;jettySize=auto;html=1;exitX=0.5;exitY=1;exitDx=0;exitDy=0;entryX=0.5;entryY=0;entryDx=0;entryDy=0;" parent="1" source="F-AHuK_9SeL1mnWa1wMK-29" edge="1" target="F-AHuK_9SeL1mnWa1wMK-70">
          <mxGeometry relative="1" as="geometry">
            <mxPoint x="416" y="740" as="targetPoint" />
          </mxGeometry>
        </mxCell>
        <mxCell id="F-AHuK_9SeL1mnWa1wMK-44" value="True" style="edgeLabel;html=1;align=center;verticalAlign=middle;resizable=0;points=[];" parent="F-AHuK_9SeL1mnWa1wMK-38" vertex="1" connectable="0">
          <mxGeometry x="-0.9123" relative="1" as="geometry">
            <mxPoint as="offset" />
          </mxGeometry>
        </mxCell>
        <mxCell id="F-AHuK_9SeL1mnWa1wMK-57" style="edgeStyle=orthogonalEdgeStyle;rounded=0;orthogonalLoop=1;jettySize=auto;html=1;exitX=0;exitY=0.5;exitDx=0;exitDy=0;entryX=0;entryY=0.5;entryDx=0;entryDy=0;" parent="1" source="F-AHuK_9SeL1mnWa1wMK-29" target="F-AHuK_9SeL1mnWa1wMK-12" edge="1">
          <mxGeometry relative="1" as="geometry" />
        </mxCell>
        <mxCell id="F-AHuK_9SeL1mnWa1wMK-58" value="False" style="edgeLabel;html=1;align=center;verticalAlign=middle;resizable=0;points=[];" parent="F-AHuK_9SeL1mnWa1wMK-57" vertex="1" connectable="0">
          <mxGeometry x="-0.3171" y="-1" relative="1" as="geometry">
            <mxPoint as="offset" />
          </mxGeometry>
        </mxCell>
        <mxCell id="F-AHuK_9SeL1mnWa1wMK-29" value="全网" style="rhombus;whiteSpace=wrap;html=1;" parent="1" vertex="1">
          <mxGeometry x="74" y="550" width="80" height="80" as="geometry" />
        </mxCell>
        <mxCell id="F-AHuK_9SeL1mnWa1wMK-40" style="edgeStyle=orthogonalEdgeStyle;rounded=0;orthogonalLoop=1;jettySize=auto;html=1;exitX=0.5;exitY=1;exitDx=0;exitDy=0;entryX=0.5;entryY=0;entryDx=0;entryDy=0;" parent="1" source="F-AHuK_9SeL1mnWa1wMK-30" edge="1" target="F-AHuK_9SeL1mnWa1wMK-70">
          <mxGeometry relative="1" as="geometry">
            <mxPoint x="416" y="740" as="targetPoint" />
          </mxGeometry>
        </mxCell>
        <mxCell id="F-AHuK_9SeL1mnWa1wMK-45" value="True" style="edgeLabel;html=1;align=center;verticalAlign=middle;resizable=0;points=[];" parent="F-AHuK_9SeL1mnWa1wMK-40" vertex="1" connectable="0">
          <mxGeometry x="-0.8532" y="1" relative="1" as="geometry">
            <mxPoint as="offset" />
          </mxGeometry>
        </mxCell>
        <mxCell id="F-AHuK_9SeL1mnWa1wMK-30" value="定向" style="rhombus;whiteSpace=wrap;html=1;" parent="1" vertex="1">
          <mxGeometry x="224" y="550" width="80" height="80" as="geometry" />
        </mxCell>
        <mxCell id="lB2RrGQZWS24RCkr5YE0-11" style="edgeStyle=orthogonalEdgeStyle;rounded=0;orthogonalLoop=1;jettySize=auto;html=1;exitX=0.5;exitY=1;exitDx=0;exitDy=0;entryX=0.5;entryY=0;entryDx=0;entryDy=0;" edge="1" parent="1" source="F-AHuK_9SeL1mnWa1wMK-31" target="F-AHuK_9SeL1mnWa1wMK-70">
          <mxGeometry relative="1" as="geometry" />
        </mxCell>
        <mxCell id="lB2RrGQZWS24RCkr5YE0-18" value="True" style="edgeLabel;html=1;align=center;verticalAlign=middle;resizable=0;points=[];" vertex="1" connectable="0" parent="lB2RrGQZWS24RCkr5YE0-11">
          <mxGeometry x="-0.8246" y="-1" relative="1" as="geometry">
            <mxPoint y="7" as="offset" />
          </mxGeometry>
        </mxCell>
        <mxCell id="lB2RrGQZWS24RCkr5YE0-12" style="edgeStyle=orthogonalEdgeStyle;rounded=0;orthogonalLoop=1;jettySize=auto;html=1;exitX=0.5;exitY=1;exitDx=0;exitDy=0;entryX=0.5;entryY=0;entryDx=0;entryDy=0;" edge="1" parent="1" source="F-AHuK_9SeL1mnWa1wMK-32" target="F-AHuK_9SeL1mnWa1wMK-70">
          <mxGeometry relative="1" as="geometry">
            <mxPoint x="674" y="820" as="targetPoint" />
          </mxGeometry>
        </mxCell>
        <mxCell id="lB2RrGQZWS24RCkr5YE0-20" value="True" style="edgeLabel;html=1;align=center;verticalAlign=middle;resizable=0;points=[];" vertex="1" connectable="0" parent="lB2RrGQZWS24RCkr5YE0-12">
          <mxGeometry x="-0.8928" y="1" relative="1" as="geometry">
            <mxPoint as="offset" />
          </mxGeometry>
        </mxCell>
        <mxCell id="F-AHuK_9SeL1mnWa1wMK-32" value="比例" style="rhombus;whiteSpace=wrap;html=1;" parent="1" vertex="1">
          <mxGeometry x="514" y="550" width="80" height="80" as="geometry" />
        </mxCell>
        <mxCell id="F-AHuK_9SeL1mnWa1wMK-65" style="edgeStyle=orthogonalEdgeStyle;rounded=0;orthogonalLoop=1;jettySize=auto;html=1;exitX=0.5;exitY=1;exitDx=0;exitDy=0;entryX=0.5;entryY=0;entryDx=0;entryDy=0;" parent="1" source="F-AHuK_9SeL1mnWa1wMK-64" target="F-AHuK_9SeL1mnWa1wMK-1" edge="1">
          <mxGeometry relative="1" as="geometry" />
        </mxCell>
        <mxCell id="F-AHuK_9SeL1mnWa1wMK-64" value="开始" style="rounded=1;whiteSpace=wrap;html=1;" parent="1" vertex="1">
          <mxGeometry x="352" y="-100" width="120" height="60" as="geometry" />
        </mxCell>
        <mxCell id="F-AHuK_9SeL1mnWa1wMK-66" value="结束" style="rounded=1;whiteSpace=wrap;html=1;" parent="1" vertex="1">
          <mxGeometry x="355" y="940" width="120" height="60" as="geometry" />
        </mxCell>
        <mxCell id="lB2RrGQZWS24RCkr5YE0-31" style="edgeStyle=orthogonalEdgeStyle;rounded=0;orthogonalLoop=1;jettySize=auto;html=1;exitX=0.5;exitY=1;exitDx=0;exitDy=0;entryX=0.5;entryY=0;entryDx=0;entryDy=0;" edge="1" parent="1" source="F-AHuK_9SeL1mnWa1wMK-67" target="F-AHuK_9SeL1mnWa1wMK-31">
          <mxGeometry relative="1" as="geometry" />
        </mxCell>
        <mxCell id="lB2RrGQZWS24RCkr5YE0-32" style="edgeStyle=orthogonalEdgeStyle;rounded=0;orthogonalLoop=1;jettySize=auto;html=1;exitX=0.5;exitY=1;exitDx=0;exitDy=0;entryX=0.5;entryY=0;entryDx=0;entryDy=0;" edge="1" parent="1" source="F-AHuK_9SeL1mnWa1wMK-67" target="F-AHuK_9SeL1mnWa1wMK-29">
          <mxGeometry relative="1" as="geometry" />
        </mxCell>
        <mxCell id="lB2RrGQZWS24RCkr5YE0-33" style="edgeStyle=orthogonalEdgeStyle;rounded=0;orthogonalLoop=1;jettySize=auto;html=1;exitX=0.5;exitY=1;exitDx=0;exitDy=0;entryX=0.5;entryY=0;entryDx=0;entryDy=0;" edge="1" parent="1" source="F-AHuK_9SeL1mnWa1wMK-67" target="F-AHuK_9SeL1mnWa1wMK-30">
          <mxGeometry relative="1" as="geometry" />
        </mxCell>
        <mxCell id="lB2RrGQZWS24RCkr5YE0-34" style="edgeStyle=orthogonalEdgeStyle;rounded=0;orthogonalLoop=1;jettySize=auto;html=1;exitX=0.5;exitY=1;exitDx=0;exitDy=0;entryX=0.5;entryY=0;entryDx=0;entryDy=0;" edge="1" parent="1" source="F-AHuK_9SeL1mnWa1wMK-67" target="F-AHuK_9SeL1mnWa1wMK-32">
          <mxGeometry relative="1" as="geometry" />
        </mxCell>
        <mxCell id="lB2RrGQZWS24RCkr5YE0-35" style="edgeStyle=orthogonalEdgeStyle;rounded=0;orthogonalLoop=1;jettySize=auto;html=1;exitX=0.5;exitY=1;exitDx=0;exitDy=0;entryX=0.5;entryY=0;entryDx=0;entryDy=0;" edge="1" parent="1" source="F-AHuK_9SeL1mnWa1wMK-67" target="lB2RrGQZWS24RCkr5YE0-27">
          <mxGeometry relative="1" as="geometry" />
        </mxCell>
        <mxCell id="F-AHuK_9SeL1mnWa1wMK-67" value="匹配策略" style="rounded=0;whiteSpace=wrap;html=1;" parent="1" vertex="1">
          <mxGeometry x="356" y="410" width="120" height="60" as="geometry" />
        </mxCell>
        <mxCell id="lB2RrGQZWS24RCkr5YE0-49" style="edgeStyle=orthogonalEdgeStyle;rounded=0;orthogonalLoop=1;jettySize=auto;html=1;exitX=0.5;exitY=1;exitDx=0;exitDy=0;entryX=0.5;entryY=0;entryDx=0;entryDy=0;" edge="1" parent="1" source="F-AHuK_9SeL1mnWa1wMK-70" target="F-AHuK_9SeL1mnWa1wMK-66">
          <mxGeometry relative="1" as="geometry" />
        </mxCell>
        <mxCell id="F-AHuK_9SeL1mnWa1wMK-70" value="下发相应的更新策略" style="rounded=0;whiteSpace=wrap;html=1;" parent="1" vertex="1">
          <mxGeometry x="356" y="800" width="120" height="60" as="geometry" />
        </mxCell>
        <mxCell id="F-AHuK_9SeL1mnWa1wMK-74" style="edgeStyle=orthogonalEdgeStyle;rounded=0;orthogonalLoop=1;jettySize=auto;html=1;exitX=0.5;exitY=1;exitDx=0;exitDy=0;entryX=1;entryY=0.5;entryDx=0;entryDy=0;" parent="1" source="F-AHuK_9SeL1mnWa1wMK-72" target="F-AHuK_9SeL1mnWa1wMK-66" edge="1">
          <mxGeometry relative="1" as="geometry" />
        </mxCell>
        <mxCell id="F-AHuK_9SeL1mnWa1wMK-72" value="无任何策略匹配" style="rounded=0;whiteSpace=wrap;html=1;" parent="1" vertex="1">
          <mxGeometry x="770" y="252.5" width="120" height="85" as="geometry" />
        </mxCell>
        <mxCell id="F-AHuK_9SeL1mnWa1wMK-31" value="三号" style="rhombus;whiteSpace=wrap;html=1;" parent="1" vertex="1">
          <mxGeometry x="376" y="550" width="80" height="80" as="geometry" />
        </mxCell>
        <mxCell id="lB2RrGQZWS24RCkr5YE0-36" style="edgeStyle=orthogonalEdgeStyle;rounded=0;orthogonalLoop=1;jettySize=auto;html=1;exitX=0.5;exitY=1;exitDx=0;exitDy=0;entryX=0.5;entryY=0;entryDx=0;entryDy=0;" edge="1" parent="1" source="lB2RrGQZWS24RCkr5YE0-27" target="F-AHuK_9SeL1mnWa1wMK-70">
          <mxGeometry relative="1" as="geometry" />
        </mxCell>
        <mxCell id="lB2RrGQZWS24RCkr5YE0-37" value="True" style="edgeLabel;html=1;align=center;verticalAlign=middle;resizable=0;points=[];" vertex="1" connectable="0" parent="lB2RrGQZWS24RCkr5YE0-36">
          <mxGeometry x="-0.916" relative="1" as="geometry">
            <mxPoint as="offset" />
          </mxGeometry>
        </mxCell>
        <mxCell id="lB2RrGQZWS24RCkr5YE0-44" style="edgeStyle=orthogonalEdgeStyle;rounded=0;orthogonalLoop=1;jettySize=auto;html=1;exitX=0;exitY=0.5;exitDx=0;exitDy=0;entryX=0;entryY=0.5;entryDx=0;entryDy=0;" edge="1" parent="1">
          <mxGeometry relative="1" as="geometry">
            <mxPoint x="674" y="589.44" as="sourcePoint" />
            <mxPoint x="74" y="589.44" as="targetPoint" />
          </mxGeometry>
        </mxCell>
        <mxCell id="lB2RrGQZWS24RCkr5YE0-45" value="False" style="edgeLabel;html=1;align=center;verticalAlign=middle;resizable=0;points=[];" vertex="1" connectable="0" parent="lB2RrGQZWS24RCkr5YE0-44">
          <mxGeometry x="-0.8633" y="-2" relative="1" as="geometry">
            <mxPoint as="offset" />
          </mxGeometry>
        </mxCell>
        <mxCell id="lB2RrGQZWS24RCkr5YE0-46" value="False" style="edgeLabel;html=1;align=center;verticalAlign=middle;resizable=0;points=[];" vertex="1" connectable="0" parent="lB2RrGQZWS24RCkr5YE0-44">
          <mxGeometry x="-0.367" y="2" relative="1" as="geometry">
            <mxPoint as="offset" />
          </mxGeometry>
        </mxCell>
        <mxCell id="lB2RrGQZWS24RCkr5YE0-47" value="False" style="edgeLabel;html=1;align=center;verticalAlign=middle;resizable=0;points=[];" vertex="1" connectable="0" parent="lB2RrGQZWS24RCkr5YE0-44">
          <mxGeometry x="0.1219" y="-2" relative="1" as="geometry">
            <mxPoint as="offset" />
          </mxGeometry>
        </mxCell>
        <mxCell id="lB2RrGQZWS24RCkr5YE0-48" value="False" style="edgeLabel;html=1;align=center;verticalAlign=middle;resizable=0;points=[];" vertex="1" connectable="0" parent="lB2RrGQZWS24RCkr5YE0-44">
          <mxGeometry x="0.633" relative="1" as="geometry">
            <mxPoint as="offset" />
          </mxGeometry>
        </mxCell>
        <mxCell id="lB2RrGQZWS24RCkr5YE0-27" value="三号+比例" style="rhombus;whiteSpace=wrap;html=1;" vertex="1" parent="1">
          <mxGeometry x="674" y="550" width="80" height="80" as="geometry" />
        </mxCell>
      </root>
    </mxGraphModel>
  </diagram>
</mxfile>
